<svg width="41" height="40" viewBox="0 0 41 40" fill="none" xmlns="http://www.w3.org/2000/svg">
<rect x="0.199951" width="40" height="40" rx="6" fill="#2D416F"/>
<path d="M25.6676 21.683C27.251 21.683 28.5334 22.9438 28.5334 24.4993C28.5334 26.054 27.251 27.3148 25.6676 27.3148C24.0852 27.3148 22.8019 26.054 22.8019 24.4993C22.8019 22.9438 24.0852 21.683 25.6676 21.683ZM18.6028 23.2983C19.2963 23.2983 19.8592 23.8514 19.8592 24.5327C19.8592 25.2132 19.2963 25.7672 18.6028 25.7672H13.1232C12.4297 25.7672 11.8667 25.2132 11.8667 24.5327C11.8667 23.8514 12.4297 23.2983 13.1232 23.2983H18.6028ZM14.7324 12.5C16.3157 12.5 17.5981 13.7608 17.5981 15.3155C17.5981 16.871 16.3157 18.1318 14.7324 18.1318C13.15 18.1318 11.8667 16.871 11.8667 15.3155C11.8667 13.7608 13.15 12.5 14.7324 12.5ZM27.2778 14.0819C27.9704 14.0819 28.5334 14.635 28.5334 15.3155C28.5334 15.9968 27.9704 16.5499 27.2778 16.5499H21.7982C21.1047 16.5499 20.5417 15.9968 20.5417 15.3155C20.5417 14.635 21.1047 14.0819 21.7982 14.0819H27.2778Z" fill="white"/>
</svg>
