<svg width="16" height="18" viewBox="0 0 16 18" fill="none" xmlns="http://www.w3.org/2000/svg">
<path d="M8.59761 0.666779C9.22781 0.666779 9.79841 1.01678 10.1135 1.53345C10.2668 1.78345 10.369 2.09178 10.3435 2.41678C10.3264 2.66678 10.4031 2.91678 10.5393 3.15011C10.9737 3.85845 11.936 4.12511 12.6854 3.72511C13.5286 3.24178 14.5931 3.53345 15.0785 4.35844L15.6491 5.34178C16.1431 6.16678 15.8705 7.22511 15.0189 7.70011C14.295 8.12511 14.0395 9.06678 14.4739 9.78344C14.6101 10.0084 14.7634 10.2001 15.0019 10.3168C15.2999 10.4751 15.5299 10.7251 15.6917 10.9751C16.0068 11.4918 15.9812 12.1251 15.6747 12.6834L15.0785 13.6834C14.7634 14.2168 14.1758 14.5501 13.5711 14.5501C13.2731 14.5501 12.9409 14.4668 12.6684 14.3001C12.447 14.1584 12.1915 14.1084 11.919 14.1084C11.0759 14.1084 10.369 14.8001 10.3435 15.6251C10.3435 16.5834 9.55995 17.3334 8.58057 17.3334H7.42236C6.43446 17.3334 5.65096 16.5834 5.65096 15.6251C5.63393 14.8001 4.92708 14.1084 4.08396 14.1084C3.80292 14.1084 3.54743 14.1584 3.33453 14.3001C3.062 14.4668 2.72135 14.5501 2.4318 14.5501C1.81862 14.5501 1.231 14.2168 0.915894 13.6834L0.328268 12.6834C0.0131649 12.1418 -0.00386769 11.4918 0.311236 10.9751C0.447497 10.7251 0.702986 10.4751 0.992541 10.3168C1.231 10.2001 1.38429 10.0084 1.52907 9.78344C1.95488 9.06678 1.69939 8.12511 0.975508 7.70011C0.132393 7.22511 -0.140129 6.16678 0.345301 5.34178L0.915894 4.35844C1.40984 3.53345 2.46586 3.24178 3.31749 3.72511C4.05841 4.12511 5.02076 3.85845 5.45509 3.15011C5.59135 2.91678 5.668 2.66678 5.65096 2.41678C5.63393 2.09178 5.72761 1.78345 5.88942 1.53345C6.20452 1.01678 6.77512 0.683445 7.39681 0.666779H8.59761ZM8.00998 6.65011C6.67292 6.65011 5.59135 7.70011 5.59135 9.00844C5.59135 10.3168 6.67292 11.3584 8.00998 11.3584C9.34704 11.3584 10.4031 10.3168 10.4031 9.00844C10.4031 7.70011 9.34704 6.65011 8.00998 6.65011Z" fill="#818DA9"/>
</svg>
