<svg width="20" height="20" viewBox="0 0 20 20" fill="none" xmlns="http://www.w3.org/2000/svg">
<path d="M9.95744 12.1163C12.8168 12.1163 15.2582 12.5696 15.2582 14.3836C15.2582 16.1968 12.8324 16.6666 9.95744 16.6666C7.09812 16.6666 4.65666 16.2133 4.65666 14.4001C4.65666 12.5861 7.08245 12.1163 9.95744 12.1163ZM14.5291 11.024C15.6223 11.0038 16.7975 11.1539 17.2318 11.2605C18.1518 11.4413 18.7569 11.8106 19.0076 12.3472C19.2196 12.7877 19.2196 13.2988 19.0076 13.7386C18.6241 14.5709 17.3877 14.8381 16.9072 14.9072C16.8079 14.9222 16.7281 14.8359 16.7385 14.736C16.984 12.4297 15.0313 11.3363 14.5262 11.0848C14.5045 11.0736 14.5 11.0563 14.5023 11.0458C14.5038 11.0383 14.5127 11.0263 14.5291 11.024ZM5.2654 11.0225L5.47125 11.0243C5.48767 11.0266 5.49587 11.0386 5.49737 11.0454C5.49961 11.0566 5.49513 11.0731 5.47424 11.0851C4.96833 11.3366 3.01561 12.43 3.2611 14.7356C3.27155 14.8362 3.19245 14.9217 3.09321 14.9075C2.61268 14.8384 1.37628 14.5712 0.992746 13.7389C0.780087 13.2984 0.780087 12.788 0.992746 12.3475C1.24346 11.8109 1.84786 11.4416 2.76788 11.26C3.2029 11.1542 4.37737 11.0041 5.47125 11.0243L5.2654 11.0225ZM9.95744 3.33331C11.9042 3.33331 13.4652 4.90187 13.4652 6.86069C13.4652 8.81876 11.9042 10.3888 9.95744 10.3888C8.01069 10.3888 6.4497 8.81876 6.4497 6.86069C6.4497 4.90187 8.01069 3.33331 9.95744 3.33331ZM14.7194 3.92156C16.5998 3.92156 18.0764 5.70101 17.5735 7.68309C17.234 9.01749 16.0051 9.90384 14.6358 9.86782C14.4986 9.86406 14.3635 9.8513 14.2329 9.82879C14.1382 9.81228 14.0904 9.70496 14.1441 9.6254C14.6664 8.85238 14.9642 7.9225 14.9642 6.92433C14.9642 5.88263 14.6388 4.91148 14.074 4.11519C14.0561 4.09042 14.0426 4.05215 14.0605 4.02363C14.0755 4.00036 14.1031 3.98835 14.1292 3.98235C14.3195 3.94332 14.515 3.92156 14.7194 3.92156ZM5.27986 3.92148C5.48431 3.92148 5.67981 3.94325 5.87082 3.98228C5.89619 3.98828 5.92455 4.00104 5.93947 4.02355C5.95663 4.05207 5.94395 4.09035 5.92604 4.11511C5.36119 4.9114 5.03586 5.88256 5.03586 6.92426C5.03586 7.92243 5.33358 8.85231 5.8559 9.62533C5.90963 9.70488 5.86187 9.8122 5.76711 9.82871C5.63578 9.85198 5.50147 9.86399 5.36418 9.86774C3.99496 9.90376 2.76602 9.01742 2.42651 7.68302C1.92285 5.70093 3.39951 3.92148 5.27986 3.92148Z" fill="#818DA9"/>
</svg>
